<?xml version="1.0" standalone="no"?>
<!DOCTYPE svg PUBLIC "-//W3C//DTD SVG 20010904//EN"
 "http://www.w3.org/TR/2001/REC-SVG-20010904/DTD/svg10.dtd">
<svg version="1.0" xmlns="http://www.w3.org/2000/svg"
 width="512.000000pt" height="512.000000pt" viewBox="0 0 512.000000 512.000000"
 preserveAspectRatio="xMidYMid meet">
<metadata>
Created by potrace 1.14, written by Peter Selinger 2001-2017
</metadata>
<g transform="translate(0.000000,512.000000) scale(0.100000,-0.100000)"
fill="#000000" stroke="none">
<path d="M760 3507 c-54 -18 -70 -61 -70 -183 0 -198 0 -198 338 -202 l252 -4
0 -79 0 -79 -240 0 -240 0 0 40 c0 45 0 45 -83 28 l-59 -12 5 -55 c7 -65 32
-102 76 -113 18 -5 164 -8 326 -6 l295 3 27 28 c27 27 28 30 31 160 2 118 1
135 -18 165 -11 18 -32 37 -46 42 -14 6 -137 10 -275 10 l-249 0 0 75 0 75
220 0 220 0 0 -35 c0 -40 7 -42 85 -22 l50 14 0 51 c-1 60 -20 87 -74 102 -52
14 -527 12 -571 -3z"/>
<path d="M1530 2865 l0 -25 1446 0 1445 0 -3 23 -3 22 -1442 3 -1443 2 0 -25z"/>
<path d="M700 2551 l0 -171 89 0 c95 0 132 15 173 70 39 54 35 148 -9 200 -38
46 -78 62 -170 68 l-83 5 0 -172z m183 108 c59 -27 86 -119 51 -179 -26 -42
-64 -60 -133 -60 l-61 0 0 131 0 132 58 -6 c31 -2 69 -11 85 -18z"/>
<path d="M1080 2551 c0 -141 2 -170 15 -175 13 -5 15 18 15 169 0 149 -2 175
-15 175 -13 0 -15 -25 -15 -169z"/>
<path d="M1253 2706 c-17 -8 -36 -23 -42 -35 -17 -31 -13 -86 8 -112 17 -21
30 -25 111 -30 96 -5 120 -17 120 -60 0 -37 -28 -49 -110 -49 -74 0 -81 2 -96
25 -9 14 -23 25 -30 25 -22 0 -16 -39 11 -65 22 -23 32 -25 118 -25 85 0 95 2
116 24 35 37 38 87 8 122 -23 27 -32 29 -112 35 -76 5 -90 9 -106 28 -25 30
-24 37 6 66 41 42 175 32 190 -14 7 -24 45 -29 45 -6 0 8 -13 29 -28 46 -26
29 -34 32 -103 36 -50 2 -84 -1 -106 -11z"/>
<path d="M1577 2714 c-21 -22 -4 -33 56 -36 l62 -3 3 -147 c2 -139 4 -148 22
-148 18 0 20 9 22 148 l3 147 63 3 c53 3 63 6 60 20 -3 15 -21 17 -144 20 -77
1 -143 -1 -147 -4z"/>
<path d="M1950 2550 c0 -163 1 -170 20 -170 18 0 20 7 20 75 l0 75 44 0 c42 0
47 -3 111 -75 49 -55 74 -75 92 -75 23 0 20 5 -31 66 -60 70 -66 84 -37 84 26
0 71 55 71 86 0 40 -27 81 -61 93 -18 6 -76 11 -130 11 l-99 0 0 -170z m220
117 c19 -10 25 -20 25 -47 0 -48 -29 -61 -125 -58 l-75 3 -3 58 -3 57 78 0
c43 0 89 -6 103 -13z"/>
<path d="M2348 2549 c-2 -94 -1 -172 0 -174 2 -2 10 -1 18 2 21 8 21 343 -1
343 -12 0 -15 -29 -17 -171z"/>
<path d="M2470 2548 l0 -173 120 3 c119 3 119 3 145 33 29 35 32 67 10 110
-14 27 -14 32 0 51 32 46 7 118 -46 137 -18 6 -76 11 -130 11 l-99 0 0 -172z
m220 119 c19 -10 25 -20 25 -47 0 -46 -29 -60 -127 -60 l-78 0 0 60 0 60 78 0
c42 0 88 -6 102 -13z m8 -153 c24 -17 30 -62 10 -82 -8 -8 -46 -12 -105 -12
l-93 0 0 55 0 55 83 0 c59 0 89 -5 105 -16z"/>
<path d="M2844 2705 c-13 -33 2 -219 19 -253 37 -69 136 -94 205 -52 55 34 73
90 70 212 -3 87 -6 103 -20 106 -14 3 -17 -11 -20 -118 l-3 -122 -33 -29 c-24
-22 -42 -29 -72 -29 -30 0 -48 7 -72 29 l-33 29 -3 121 c-3 97 -6 121 -18 121
-8 0 -17 -7 -20 -15z"/>
<path d="M3227 2713 c-21 -21 -3 -32 56 -35 l62 -3 3 -147 c2 -140 4 -148 22
-148 19 0 20 7 20 150 l0 150 60 0 c53 0 60 2 60 20 0 19 -7 20 -138 20 -76 0
-142 -3 -145 -7z"/>
<path d="M3600 2550 c0 -144 2 -170 15 -170 13 0 15 26 15 170 0 144 -2 170
-15 170 -13 0 -15 -26 -15 -170z"/>
<path d="M3851 2710 c-39 -9 -77 -35 -105 -74 -30 -39 -30 -143 0 -183 75
-102 211 -99 281 6 48 71 20 187 -56 229 -47 25 -78 31 -120 22z m130 -80 c75
-88 19 -210 -96 -210 -99 0 -156 100 -110 190 38 73 152 84 206 20z"/>
<path d="M4137 2713 c-4 -3 -7 -80 -7 -170 0 -156 1 -163 20 -163 19 0 20 7
20 125 0 69 3 125 8 125 4 0 54 -56 112 -125 61 -73 112 -125 123 -125 16 0
17 13 15 168 -3 141 -5 167 -18 167 -12 0 -16 -23 -20 -130 l-5 -129 -113 132
c-63 73 -117 132 -121 132 -4 0 -11 -3 -14 -7z"/>
<path d="M680 1915 l0 -335 80 0 80 0 0 125 0 125 218 0 c248 1 293 7 331 44
25 25 26 31 29 155 3 105 0 135 -13 161 -29 57 -50 60 -405 60 l-320 0 0 -335z
m580 196 c5 -11 10 -44 10 -75 0 -84 -5 -86 -237 -86 l-193 0 0 90 0 90 205 0
c192 0 205 -1 215 -19z"/>
<path d="M1530 2215 l0 -25 1445 0 1445 0 0 25 0 25 -1445 0 -1445 0 0 -25z"/>
<path d="M3520 1950 l0 -120 115 0 115 0 0 120 0 120 -115 0 -115 0 0 -120z"/>
<path d="M3850 1950 l0 -120 115 0 115 0 0 120 0 120 -115 0 -115 0 0 -120z"/>
</g>
</svg>
